<svg xmlns="http://www.w3.org/2000/svg" width="45.682" height="45.682"><path d="M36.038 16.922l7.873-7.303a5.492 5.492 0 00.145-7.937l-.058-.059A5.511 5.511 0 0039.996.001a5.498 5.498 0 00-3.938 1.77l-7.302 7.873L4.57 1.321c-1.459-.504-2.893-.122-3.346.887L.142 4.631C-.31 5.642.363 6.967 1.71 7.719l18.991 10.612-8.547 9.216-4.842-1.046a1.104 1.104 0 00-1.259.671l-.725 1.826c-.2.501.005 1.062.467 1.34l5.239 3.146 1.188 1.188 3.146 5.24c.278.461.844.659 1.346.461l1.821-.723a1.1 1.1 0 00.672-1.255l-1.057-4.883 9.198-8.531L37.96 43.972c.753 1.348 2.077 2.021 3.089 1.568l2.421-1.082c1.011-.452 1.395-1.888.891-3.347l-8.323-24.189z"/></svg>